<svg width="32.986328" height="29.608398" viewBox="0 0 32.9863 29.6084" fill="none" xmlns="http://www.w3.org/2000/svg" xmlns:xlink="http://www.w3.org/1999/xlink">
	<desc>
			Created with Pixso.
	</desc>
	<defs>
		<filter id="filter_2_476_dd" x="0.000000" y="0.000000" width="32.986328" height="29.608398" filterUnits="userSpaceOnUse" color-interpolation-filters="sRGB">
			<feFlood flood-opacity="0" result="BackgroundImageFix"/>
			<feColorMatrix in="SourceAlpha" type="matrix" values="0 0 0 0 0 0 0 0 0 0 0 0 0 0 0 0 0 0 127 0" result="hardAlpha"/>
			<feOffset dx="0" dy="4"/>
			<feGaussianBlur stdDeviation="1.33333"/>
			<feComposite in2="hardAlpha" operator="out" k2="-1" k3="1"/>
			<feColorMatrix type="matrix" values="0 0 0 0 0 0 0 0 0 0 0 0 0 0 0 0 0 0 0.25 0"/>
			<feBlend mode="normal" in2="BackgroundImageFix" result="effect_dropShadow_1"/>
			<feBlend mode="normal" in="SourceGraphic" in2="effect_dropShadow_1" result="shape"/>
		</filter>
		<clipPath id="clip2_6906">
			<rect id="Icons-dribbble" width="14.575342" height="12.604972" transform="translate(9.205566 4.501953)" fill="white" fill-opacity="0"/>
		</clipPath>
	</defs>
	<g filter="url(#filter_2_476_dd)">
		<ellipse id="Ellipse 9" cx="16.493164" cy="10.804199" rx="12.493151" ry="10.804261" fill="#FFB400" fill-opacity="1.000000"/>
		<rect id="Icons-dribbble" width="14.575342" height="12.604972" transform="translate(9.205566 4.501953)" fill="#FFFFFF" fill-opacity="0"/>
		<rect id="Icons-dribbble" width="14.575342" height="12.604972" transform="translate(9.205566 4.501953)" fill="#FFFFFF" fill-opacity="0"/>
		<rect id="Icons-dribbble" width="14.575342" height="12.604972" transform="translate(9.205566 4.501953)" fill="#FFFFFF" fill-opacity="0"/>
		<g clip-path="url(#clip2_6906)">
			<path id="Vector" d="M21.3447 10.5801C21.2949 9.75342 20.9624 8.95801 20.3896 8.29492C20.2148 8.45752 20.0283 8.60986 19.8306 8.75195C19.2241 9.1875 18.5459 9.54346 17.8188 9.80762C17.9199 9.99121 18.0132 10.1694 18.0952 10.3374L18.0952 10.3389C18.1182 10.3857 18.1406 10.4331 18.1616 10.481C19.0815 10.3916 20.0508 10.4238 20.9902 10.5337C21.1152 10.5483 21.2329 10.5645 21.3447 10.5801ZM15.645 6.66699C16.2368 7.38818 16.7827 8.13721 17.2803 8.90967C18.0229 8.65674 18.6367 8.3374 19.1313 7.98193C19.3027 7.85938 19.4644 7.72705 19.6147 7.58545C18.7407 6.94971 17.6348 6.60156 16.4932 6.60303C16.209 6.60303 15.9253 6.62402 15.645 6.6665L15.645 6.66699ZM11.7881 9.75293C12.2017 9.74365 12.6152 9.72217 13.0269 9.68799C14.0229 9.61133 15.0103 9.4668 15.98 9.25635C15.4731 8.49512 14.9258 7.75439 14.3398 7.03662C13.7144 7.30469 13.1626 7.68604 12.7222 8.1543C12.2822 8.62305 11.9634 9.16846 11.7881 9.75293ZM12.7173 13.4492C12.9531 13.1514 13.2627 12.8164 13.6738 12.4517C14.5571 11.6694 15.5991 11.0601 16.8052 10.7241L16.8428 10.7144C16.7427 10.5234 16.6484 10.3525 16.5537 10.1919C15.4385 10.4727 14.2642 10.6484 13.0938 10.7393C12.5229 10.7837 12.0112 10.8032 11.6348 10.8062C11.6333 11.769 12.0161 12.7021 12.7178 13.4492L12.7173 13.4492ZM18.3179 14.6992C18.0835 13.6777 17.7524 12.6748 17.3267 11.7007C16.1108 12.0825 15.1421 12.6411 14.3936 13.3071C14.0913 13.5708 13.8232 13.8623 13.5938 14.1763C14.4312 14.7163 15.4482 15.0078 16.4932 15.0063C17.1187 15.0073 17.7383 14.9033 18.3179 14.7002L18.3179 14.6992ZM19.4556 14.1348C20.4038 13.5044 21.0493 12.5938 21.2695 11.5767C21.063 11.5322 20.8013 11.4878 20.5132 11.4531C19.8735 11.373 19.2241 11.3672 18.582 11.4355C18.9434 12.3174 19.2354 13.2192 19.4556 14.1353L19.4556 14.1348ZM16.4932 16.0566C13.1387 16.0566 10.4199 13.7056 10.4199 10.8047C10.4199 7.9043 13.1387 5.55273 16.4932 5.55273C19.8472 5.55273 22.5659 7.9043 22.5659 10.8047C22.5659 13.7056 19.8472 16.0566 16.4932 16.0566Z" fill="#2B2B2B" fill-opacity="1.000000" fill-rule="nonzero"/>
		</g>
	</g>
</svg>
