<svg width="24.986328" height="21.608398" viewBox="0 0 24.9863 21.6084" fill="none" xmlns="http://www.w3.org/2000/svg" xmlns:xlink="http://www.w3.org/1999/xlink">
	<desc>
			Created with Pixso.
	</desc>
	<defs>
		<clipPath id="clip2_6956">
			<rect id="Icons-facebook" width="14.575342" height="12.604972" transform="translate(5.205566 4.502441)" fill="white" fill-opacity="0"/>
		</clipPath>
	</defs>
	<ellipse id="Ellipse 9" cx="12.493164" cy="10.804199" rx="12.493151" ry="10.804261" fill="#FFB400" fill-opacity="1.000000"/>
	<rect id="Icons-facebook" width="14.575342" height="12.604972" transform="translate(5.205566 4.502441)" fill="#FFFFFF" fill-opacity="0"/>
	<rect id="Icons-facebook" width="14.575342" height="12.604972" transform="translate(5.205566 4.502441)" fill="#FFFFFF" fill-opacity="0"/>
	<rect id="Icons-facebook" width="14.575342" height="12.604972" transform="translate(5.205566 4.502441)" fill="#FFFFFF" fill-opacity="0"/>
	<g clip-path="url(#clip2_6956)">
		<path id="Vector" d="M13.7075 11.5928L15.2261 11.5928L15.8335 9.4917L13.7075 9.4917L13.7075 8.44141C13.7075 7.90039 13.7075 7.39111 14.9224 7.39111L15.8335 7.39111L15.8335 5.62646C15.6353 5.60352 14.8877 5.55273 14.0981 5.55273C12.4492 5.55273 11.2783 6.42285 11.2783 8.021L11.2783 9.4917L9.45654 9.4917L9.45654 11.5928L11.2783 11.5928L11.2783 16.0566L13.7075 16.0566L13.7075 11.5928Z" fill="#2B2B2B" fill-opacity="1.000000" fill-rule="nonzero"/>
	</g>
</svg>
