<svg width="24.986328" height="21.608398" viewBox="0 0 24.9863 21.6084" fill="none" xmlns="http://www.w3.org/2000/svg" xmlns:xlink="http://www.w3.org/1999/xlink">
	<desc>
			Created with Pixso.
	</desc>
	<defs>
		<clipPath id="clip2_6926">
			<rect id="Icons-linkedin" width="14.575342" height="12.604972" transform="translate(5.205566 4.501953)" fill="white" fill-opacity="0"/>
		</clipPath>
	</defs>
	<ellipse id="Ellipse 18" cx="12.493164" cy="10.804199" rx="12.493151" ry="10.804261" fill="#FFB400" fill-opacity="1.000000"/>
	<rect id="Icons-linkedin" width="14.575342" height="12.604972" transform="translate(5.205566 4.501953)" fill="#FFFFFF" fill-opacity="0"/>
	<rect id="Icons-linkedin" width="14.575342" height="12.604972" transform="translate(5.205566 4.501953)" fill="#FFFFFF" fill-opacity="0"/>
	<rect id="Icons-linkedin" width="14.575342" height="12.604972" transform="translate(5.205566 4.501953)" fill="#FFFFFF" fill-opacity="0"/>
	<g clip-path="url(#clip2_6926)">
		<path id="Vector" d="M9.42041 7.12793C9.42041 7.40674 9.29199 7.67383 9.06445 7.87061C8.83643 8.06738 8.52734 8.17822 8.20508 8.17773C7.8833 8.17773 7.57422 8.06689 7.34668 7.87012C7.11865 7.67285 6.99121 7.40576 6.99121 7.12695C6.99121 6.84863 7.11963 6.58154 7.34717 6.38428C7.5752 6.1875 7.88428 6.07715 8.20654 6.07715C8.52881 6.07715 8.8374 6.18799 9.06494 6.38525C9.29297 6.58203 9.42041 6.84961 9.42041 7.12793ZM9.45703 8.95557L7.02783 8.95557L7.02783 15.5312L9.45703 15.5312L9.45703 8.95557ZM13.2949 8.95557L10.8779 8.95557L10.8779 15.5312L13.271 15.5312L13.271 12.0806C13.271 10.1587 16.1675 9.97998 16.1675 12.0806L16.1675 15.5312L18.5664 15.5312L18.5664 11.3667C18.5664 8.12598 14.2788 8.24658 13.271 9.83838L13.2949 8.95557Z" fill="#2B2B2B" fill-opacity="1.000000" fill-rule="nonzero"/>
	</g>
</svg>
