<svg width="65.000000" height="493.000000" viewBox="0 0 65 493" fill="none" xmlns="http://www.w3.org/2000/svg" xmlns:xlink="http://www.w3.org/1999/xlink">
	<desc>
			Created with Pixso.
	</desc>
	<defs>
		<clipPath id="clip2_6685">
			<rect id="Icons/Home" width="18.000000" height="18.000000" transform="translate(24.000000 49.000000)" fill="white" fill-opacity="0"/>
		</clipPath>
		<clipPath id="clip2_6671">
			<rect id="file-code" width="16.500000" height="18.000000" transform="translate(25.000000 132.000000)" fill="white" fill-opacity="0"/>
		</clipPath>
		<clipPath id="clip2_6670">
			<rect id="Icons/Services" width="18.000000" height="18.000000" transform="translate(24.000000 132.000000)" fill="white" fill-opacity="0"/>
		</clipPath>
		<clipPath id="clip2_6662">
			<rect id="Icons/cv" width="18.000000" height="18.000000" transform="translate(24.000000 215.000000)" fill="white" fill-opacity="0"/>
		</clipPath>
		<clipPath id="clip2_6646">
			<rect id="Icons/Portfolio" width="18.000000" height="18.000000" transform="translate(24.000000 298.000000)" fill="white" fill-opacity="0"/>
		</clipPath>
		<clipPath id="clip2_6624">
			<rect id="Icons/Blog" width="18.000000" height="18.000000" transform="translate(24.000000 381.000000)" fill="white" fill-opacity="0"/>
		</clipPath>
		<clipPath id="clip2_6602">
			<rect id="Icons/Contact" width="18.000000" height="18.000000" transform="translate(24.000000 464.000000)" fill="white" fill-opacity="0"/>
		</clipPath>
	</defs>
	<path id="Union" d="M2 0L63 0C64.1045 0 65 0.895508 65 2L65 22C65 23.1045 64.1045 24 63 24L37.196 24L32 33L26.804 24L2 24C0.895508 24 0 23.1045 0 22L0 2C0 0.895508 0.895508 0 2 0Z" clip-rule="evenodd" fill="#2B2B2B" fill-opacity="1.000000" fill-rule="evenodd"/>
	<path id="Home" d="M15.958 18L17.2764 18L17.2764 14.1943L21.627 14.1943L21.627 18L22.9482 18L22.9482 9.27246L21.627 9.27246L21.627 13.0664L17.2764 13.0664L17.2764 9.27246L15.958 9.27246L15.958 18ZM27.5186 18.1318C29.3643 18.1318 30.5713 16.7812 30.5713 14.7568C30.5713 12.7207 29.3643 11.3701 27.5186 11.3701C25.6758 11.3701 24.4688 12.7207 24.4688 14.7568C24.4688 16.7812 25.6758 18.1318 27.5186 18.1318ZM27.5244 17.0625C26.3174 17.0625 25.7549 16.0107 25.7549 14.7539C25.7549 13.5 26.3174 12.4336 27.5244 12.4336C28.7227 12.4336 29.2852 13.5 29.2852 14.7539C29.2852 16.0107 28.7227 17.0625 27.5244 17.0625ZM31.989 18L33.2634 18L33.2634 13.9658C33.2634 13.0811 33.8816 12.4688 34.6052 12.4688C35.3142 12.4688 35.8034 12.9375 35.8034 13.6494L35.8034 18L37.0749 18L37.0749 13.8281C37.0749 13.04 37.5554 12.4688 38.3874 12.4688C39.0583 12.4688 39.615 12.8438 39.615 13.7314L39.615 18L40.8865 18L40.8865 13.6113C40.8865 12.1143 40.0515 11.3701 38.8679 11.3701C37.9275 11.3701 37.2185 11.8213 36.9021 12.5186L36.8347 12.5186C36.5505 11.8037 35.9499 11.3701 35.074 11.3701C34.2097 11.3701 33.5681 11.8008 33.2927 12.5186L33.2136 12.5186L33.2136 11.4551L31.989 11.4551L31.989 18ZM45.4126 18.1318C46.8422 18.1318 47.8501 17.4287 48.1401 16.3623L46.936 16.1455C46.7045 16.7637 46.1508 17.0801 45.4272 17.0801C44.3344 17.0801 43.602 16.3711 43.5668 15.1113L48.2221 15.1113L48.2221 14.6602C48.2221 12.293 46.8071 11.3701 45.3247 11.3701C43.4995 11.3701 42.2983 12.7588 42.2983 14.7686C42.2983 16.8018 43.4819 18.1318 45.4126 18.1318ZM43.5727 14.1562C43.6225 13.2275 44.2963 12.4219 45.3335 12.4219C46.3208 12.4219 46.9682 13.1543 46.9741 14.1562L43.5727 14.1562Z" fill="#FFFFFF" fill-opacity="1.000000" fill-rule="evenodd"/>
	<circle id="Ellipse 10" cx="33.000000" cy="58.000000" r="20.000000" fill="#FFB400" fill-opacity="1.000000"/>
	<rect id="Icons/Home" width="18.000000" height="18.000000" transform="translate(24.000000 49.000000)" fill="#FFFFFF" fill-opacity="0"/>
	<rect id="Icons/Home" width="18.000000" height="18.000000" transform="translate(24.000000 49.000000)" fill="#FFFFFF" fill-opacity="0"/>
	<rect id="Icons/Home" width="18.000000" height="18.000000" transform="translate(24.000000 49.000000)" fill="#FFFFFF" fill-opacity="0"/>
	<rect id="Icons/Home" width="18.000000" height="18.000000" transform="translate(24.000000 49.000000)" fill="#FFFFFF" fill-opacity="0"/>
	<g clip-path="url(#clip2_6685)">
		<path id="Vector" d="M39 64C39 64.1987 38.9209 64.3896 38.7803 64.5303C38.6396 64.6709 38.449 64.75 38.25 64.75L27.75 64.75C27.551 64.75 27.3604 64.6709 27.2197 64.5303C27.0791 64.3896 27 64.1987 27 64L27 57.25L24.75 57.25L32.4954 50.209C32.6333 50.0835 32.8132 50.0137 33 50.0137C33.1868 50.0137 33.3667 50.0835 33.5046 50.209L41.25 57.25L39 57.25L39 64Z" fill="#2B2B2B" fill-opacity="1.000000" fill-rule="nonzero"/>
	</g>
	<circle id="Ellipse 10" cx="33.000000" cy="141.000000" r="20.000000" fill="#F0F0F6" fill-opacity="1.000000"/>
	<rect id="Icons/Services" width="18.000000" height="18.000000" transform="translate(24.000000 132.000000)" fill="#FFFFFF" fill-opacity="0"/>
	<rect id="Icons/Services" width="18.000000" height="18.000000" transform="translate(24.000000 132.000000)" fill="#FFFFFF" fill-opacity="0"/>
	<g clip-path="url(#clip2_6670)">
		<rect id="file-code" width="16.500000" height="18.000000" transform="translate(25.000000 132.000000)" fill="#000000" fill-opacity="0"/>
		<g clip-path="url(#clip2_6671)">
			<path id="Vector" d="M41.5 136.287L41.5 136.5L36 136.5L36 132L36.2603 132C36.5339 132 36.7961 132.089 36.9895 132.247L41.198 135.69C41.3914 135.849 41.5 136.063 41.5 136.287ZM35.6562 137.625C35.0891 137.625 34.625 137.245 34.625 136.781L34.625 132L26.0312 132C25.4617 132 25 132.378 25 132.844L25 149.156C25 149.622 25.4617 150 26.0312 150L40.4688 150C41.0383 150 41.5 149.622 41.5 149.156L41.5 137.625L35.6562 137.625ZM30.2939 146.08C30.2732 146.099 30.248 146.113 30.2205 146.124C30.1926 146.134 30.1626 146.139 30.1323 146.14C30.1018 146.141 30.0713 146.137 30.043 146.128C30.0144 146.119 29.9883 146.106 29.9661 146.089L27.1787 143.951C27.1558 143.933 27.1372 143.912 27.1245 143.888C27.1121 143.864 27.1055 143.838 27.1055 143.812C27.1055 143.787 27.1121 143.761 27.1245 143.737C27.1372 143.713 27.1558 143.692 27.1787 143.674L29.9661 141.536C29.9883 141.519 30.0144 141.506 30.043 141.497C30.0713 141.488 30.1018 141.484 30.1323 141.485C30.1626 141.486 30.1926 141.491 30.2205 141.501C30.248 141.512 30.2732 141.526 30.2939 141.545L31.1353 142.279C31.1565 142.297 31.1731 142.319 31.1838 142.343C31.1946 142.367 31.1992 142.393 31.1978 142.418C31.1963 142.443 31.1885 142.468 31.175 142.491C31.1616 142.514 31.1426 142.535 31.1194 142.551L29.3677 143.812L31.1194 145.074C31.1426 145.09 31.1616 145.111 31.175 145.134C31.1885 145.157 31.1963 145.182 31.1978 145.207C31.1992 145.232 31.1946 145.258 31.1838 145.282C31.1731 145.306 31.1565 145.328 31.1353 145.346L30.2939 146.08ZM32.498 147.855L31.3184 147.575C31.2593 147.561 31.2095 147.528 31.1799 147.484C31.1501 147.44 31.1431 147.388 31.1604 147.339L33.8003 139.899C33.8174 139.851 33.8574 139.811 33.9114 139.786C33.9653 139.762 34.0288 139.756 34.0879 139.77L35.2673 140.05C35.2966 140.057 35.324 140.069 35.3477 140.084C35.3716 140.1 35.3914 140.119 35.406 140.141C35.4207 140.163 35.4299 140.187 35.4333 140.212C35.4368 140.236 35.4341 140.262 35.4255 140.286L32.7856 147.726C32.7771 147.75 32.7629 147.772 32.7439 147.791C32.7249 147.811 32.7014 147.827 32.6746 147.839C32.6479 147.851 32.6187 147.858 32.5884 147.861C32.5581 147.864 32.5273 147.862 32.498 147.855ZM39.4072 143.951L36.6199 146.089C36.5977 146.106 36.5715 146.119 36.543 146.128C36.5146 146.137 36.4841 146.141 36.4536 146.14C36.4233 146.139 36.3933 146.134 36.3655 146.124C36.3379 146.113 36.3127 146.099 36.292 146.08L35.4507 145.346C35.4294 145.328 35.4128 145.306 35.4021 145.282C35.3914 145.258 35.3867 145.232 35.3882 145.207C35.3896 145.182 35.3972 145.157 35.4109 145.134C35.4243 145.111 35.4434 145.09 35.4666 145.074L37.2183 143.812L35.4666 142.551C35.4434 142.535 35.4243 142.514 35.4109 142.491C35.3975 142.468 35.3896 142.443 35.3882 142.418C35.3867 142.393 35.3914 142.367 35.4021 142.343C35.4128 142.319 35.4294 142.297 35.4507 142.279L36.292 141.545C36.3127 141.526 36.3379 141.512 36.3655 141.501C36.3933 141.491 36.4233 141.486 36.4539 141.485C36.4841 141.484 36.5146 141.488 36.5432 141.497C36.5715 141.506 36.5977 141.519 36.6199 141.536L39.4072 143.674C39.4304 143.692 39.4487 143.713 39.4614 143.737C39.4739 143.761 39.4805 143.787 39.4805 143.812C39.4805 143.838 39.4739 143.864 39.4614 143.888C39.4487 143.912 39.4302 143.933 39.4072 143.951Z" fill="#767676" fill-opacity="1.000000" fill-rule="nonzero"/>
		</g>
	</g>
	<circle id="Ellipse 11" cx="33.000000" cy="224.000000" r="20.000000" fill="#F0F0F6" fill-opacity="1.000000"/>
	<rect id="Icons/cv" width="18.000000" height="18.000000" transform="translate(24.000000 215.000000)" fill="#FFFFFF" fill-opacity="0"/>
	<rect id="Icons/cv" width="18.000000" height="18.000000" transform="translate(24.000000 215.000000)" fill="#FFFFFF" fill-opacity="0"/>
	<rect id="Icons/cv" width="18.000000" height="18.000000" transform="translate(24.000000 215.000000)" fill="#FFFFFF" fill-opacity="0"/>
	<g clip-path="url(#clip2_6662)">
		<path id="Vector" d="M36.7637 226.272L33.25 229.626L29.7363 226.272C27.103 226.381 25 228.438 25 230.976L25 231.313C25 232.245 25.7917 233.001 26.7678 233.001L39.7322 233.001C40.7083 233.001 41.5 232.245 41.5 231.313L41.5 230.976C41.5 228.438 39.397 226.381 36.7637 226.272ZM25.501 217.806L25.7366 217.859L25.7366 219.912C25.4788 220.06 25.2947 220.316 25.2947 220.626C25.2947 220.921 25.4641 221.167 25.7034 221.318L25.1289 223.509C25.0664 223.751 25.2063 224.001 25.4089 224.001L26.9482 224.001C27.1509 224.001 27.2908 223.751 27.2283 223.509L26.6536 221.318C26.8931 221.167 27.0625 220.921 27.0625 220.626C27.0625 220.316 26.8784 220.06 26.6206 219.912L26.6206 218.063L29.0513 218.622C28.7346 219.227 28.5356 219.902 28.5356 220.626C28.5356 223.111 30.646 225.126 33.25 225.126C35.854 225.126 37.9644 223.111 37.9644 220.626C37.9644 219.902 37.769 219.227 37.4487 218.622L40.9954 217.806C41.6658 217.652 41.6658 216.854 40.9954 216.699L33.9829 215.082C33.5042 214.973 32.9995 214.973 32.5208 215.082L25.501 216.695C24.8342 216.85 24.8342 217.652 25.501 217.806Z" fill="#767676" fill-opacity="1.000000" fill-rule="nonzero"/>
	</g>
	<circle id="Ellipse 12" cx="33.000000" cy="307.000000" r="20.000000" fill="#F0F0F6" fill-opacity="1.000000"/>
	<rect id="Icons/Portfolio" width="18.000000" height="18.000000" transform="translate(24.000000 298.000000)" fill="#FFFFFF" fill-opacity="0"/>
	<rect id="Icons/Portfolio" width="18.000000" height="18.000000" transform="translate(24.000000 298.000000)" fill="#FFFFFF" fill-opacity="0"/>
	<rect id="Icons/Portfolio" width="18.000000" height="18.000000" transform="translate(24.000000 298.000000)" fill="#FFFFFF" fill-opacity="0"/>
	<rect id="Icons/Portfolio" width="18.000000" height="18.000000" transform="translate(24.000000 298.000000)" fill="#727272" fill-opacity="0"/>
	<g clip-path="url(#clip2_6646)">
		<path id="Vector" d="M30.75 307.75L30.75 310L35.25 310L35.25 307.75L40.5 307.75L40.5 313C40.5 313.199 40.4209 313.39 40.2803 313.53C40.1396 313.671 39.949 313.75 39.75 313.75L26.25 313.75C26.051 313.75 25.8604 313.671 25.7197 313.53C25.5791 313.39 25.5 313.199 25.5 313L25.5 307.75L30.75 307.75ZM32.25 306.25L33.75 306.25L33.75 308.5L32.25 308.5L32.25 306.25ZM29.25 301.75L29.25 299.5C29.25 299.301 29.3291 299.11 29.4697 298.97C29.6104 298.829 29.801 298.75 30 298.75L36 298.75C36.199 298.75 36.3896 298.829 36.5303 298.97C36.6709 299.11 36.75 299.301 36.75 299.5L36.75 301.75L39.75 301.75C39.949 301.75 40.1396 301.829 40.2803 301.97C40.4209 302.11 40.5 302.301 40.5 302.5L40.5 306.25L35.25 306.25L35.25 304.75L30.75 304.75L30.75 306.25L25.5 306.25L25.5 302.5C25.5 302.301 25.5791 302.11 25.7197 301.97C25.8604 301.829 26.051 301.75 26.25 301.75L29.25 301.75ZM30.75 300.25L30.75 301.75L35.25 301.75L35.25 300.25L30.75 300.25Z" fill="#767676" fill-opacity="1.000000" fill-rule="nonzero"/>
	</g>
	<circle id="Ellipse 11" cx="33.000000" cy="390.000000" r="20.000000" fill="#F0F0F6" fill-opacity="1.000000"/>
	<rect id="Icons/Blog" width="18.000000" height="18.000000" transform="translate(24.000000 381.000000)" fill="#FFFFFF" fill-opacity="0"/>
	<rect id="Icons/Blog" width="18.000000" height="18.000000" transform="translate(24.000000 381.000000)" fill="#FFFFFF" fill-opacity="0"/>
	<rect id="Icons/Blog" width="18.000000" height="18.000000" transform="translate(24.000000 381.000000)" fill="#FFFFFF" fill-opacity="0"/>
	<rect id="Icons/Blog" width="18.000000" height="18.000000" transform="translate(24.000000 381.000000)" fill="#FFFFFF" fill-opacity="0"/>
	<g clip-path="url(#clip2_6624)">
		<path id="Vector" d="M39.75 382.5C28.5 382.5 27 393 26.25 397.5L27.7485 397.5C28.248 395 29.4983 393.625 31.5 393.375C34.5 393 36.75 390.375 37.5 388.125L36.375 387.375L37.125 386.625C37.875 385.875 38.6279 384.75 39.75 382.5Z" fill="#767676" fill-opacity="1.000000" fill-rule="nonzero"/>
		<rect id="Rectangle 159" x="-14.000000" y="337.000000" width="100.000000" height="100.000000" fill="#D9D9D9" fill-opacity="1.000000"/>
	</g>
	<circle id="Ellipse 14" cx="33.000000" cy="473.000000" r="20.000000" fill="#F0F0F6" fill-opacity="1.000000"/>
	<rect id="Icons/Contact" width="18.000000" height="18.000000" transform="translate(24.000000 464.000000)" fill="#FFFFFF" fill-opacity="0"/>
	<rect id="Icons/Contact" width="18.000000" height="18.000000" transform="translate(24.000000 464.000000)" fill="#FFFFFF" fill-opacity="0"/>
	<rect id="Icons/Contact" width="18.000000" height="18.000000" transform="translate(24.000000 464.000000)" fill="#FFFFFF" fill-opacity="0"/>
	<rect id="Icons/Contact" width="18.000000" height="18.000000" transform="translate(24.000000 464.000000)" fill="#727272" fill-opacity="0"/>
	<g clip-path="url(#clip2_6602)">
		<path id="Vector" d="M28.8413 478.25L25.5 480.875L25.5 467C25.5 466.801 25.5791 466.61 25.7197 466.47C25.8604 466.329 26.051 466.25 26.25 466.25L39.75 466.25C39.949 466.25 40.1396 466.329 40.2803 466.47C40.4209 466.61 40.5 466.801 40.5 467L40.5 477.5C40.5 477.699 40.4209 477.89 40.2803 478.03C40.1396 478.171 39.949 478.25 39.75 478.25L28.8413 478.25Z" fill="#767676" fill-opacity="1.000000" fill-rule="nonzero"/>
	</g>
</svg>
