<svg width="25.000000" height="25.000000" viewBox="0 0 25 25" fill="none" xmlns="http://www.w3.org/2000/svg" xmlns:xlink="http://www.w3.org/1999/xlink">
	<desc>
			Created with Pixso.
	</desc>
	<defs/>
	<path id="Vector" d="M12.5 25C5.59619 25 0 19.4038 0 12.5C0 5.59619 5.59619 0 12.5 0C19.4038 0 25 5.59619 25 12.5C25 19.4038 19.4038 25 12.5 25ZM4.16113 18.0312C4.98291 19.2607 6.06689 20.2925 7.33521 21.0522C8.60352 21.8125 10.0244 22.2817 11.4958 22.4263C12.9673 22.5713 14.4526 22.3877 15.8447 21.8896C17.2368 21.3916 18.5012 20.5908 19.5466 19.5454C20.592 18.4995 21.3926 17.2354 21.8909 15.8433C22.3889 14.4512 22.572 12.9658 22.427 11.4941C22.2822 10.0229 21.8127 8.60205 21.0525 7.3335C20.2925 6.06543 19.2605 4.98145 18.0312 4.16016C18.5703 6.08301 18.5876 8.11426 18.0813 10.0459C17.5752 11.9775 16.564 13.7397 15.1514 15.1514C13.74 16.5635 11.978 17.5747 10.0466 18.0811C8.11523 18.5874 6.08374 18.5698 4.16113 18.0312Z" fill="#2B2B2B" fill-opacity="1.000000" fill-rule="nonzero"/>
</svg>
