<svg width="24.986328" height="21.608398" viewBox="0 0 24.9863 21.6084" fill="none" xmlns="http://www.w3.org/2000/svg" xmlns:xlink="http://www.w3.org/1999/xlink">
	<desc>
			Created with Pixso.
	</desc>
	<defs>
		<clipPath id="clip2_6936">
			<rect id="Icons-twitter" width="14.575342" height="12.604972" transform="translate(5.205566 4.501953)" fill="white" fill-opacity="0"/>
		</clipPath>
	</defs>
	<ellipse id="Ellipse 9" cx="12.493164" cy="10.804199" rx="12.493151" ry="10.804261" fill="#FFB400" fill-opacity="1.000000"/>
	<rect id="Icons-twitter" width="14.575342" height="12.604972" transform="translate(5.205566 4.501953)" fill="#FFFFFF" fill-opacity="0"/>
	<rect id="Icons-twitter" width="14.575342" height="12.604972" transform="translate(5.205566 4.501953)" fill="#FFFFFF" fill-opacity="0"/>
	<rect id="Icons-twitter" width="14.575342" height="12.604972" transform="translate(5.205566 4.501953)" fill="#FFFFFF" fill-opacity="0"/>
	<g clip-path="url(#clip2_6936)">
		<path id="Vector" d="M18.665 7.47266C18.2012 7.6499 17.7095 7.7666 17.2061 7.81836C17.7368 7.54395 18.1338 7.11182 18.3237 6.60303C17.8257 6.85938 17.2798 7.03906 16.7104 7.13623C16.3281 6.78223 15.8218 6.54785 15.2695 6.46875C14.7173 6.39014 14.1499 6.4707 13.6567 6.69922C13.1631 6.92773 12.7705 7.29102 12.54 7.73193C12.3101 8.17334 12.2544 8.66797 12.3828 9.13916C11.373 9.0957 10.3853 8.86865 9.4834 8.47314C8.58105 8.07764 7.78564 7.52246 7.14795 6.84424C6.92236 7.1792 6.80371 7.56055 6.8042 7.94873C6.8042 8.70996 7.25244 9.38281 7.93359 9.77686C7.53027 9.76611 7.13623 9.67188 6.78369 9.50195L6.78369 9.5293C6.78369 10.0366 6.98682 10.5283 7.35791 10.9209C7.72949 11.3135 8.24609 11.583 8.8208 11.6836C8.44678 11.771 8.0542 11.7842 7.67334 11.7212C7.83545 12.1577 8.15137 12.5396 8.57666 12.813C9.00195 13.0869 9.51562 13.2383 10.0459 13.2471C9.51904 13.605 8.91602 13.8691 8.27051 14.0254C7.62549 14.1816 6.95117 14.2261 6.28613 14.1567C7.44727 14.8022 8.79883 15.145 10.1792 15.144C14.8511 15.144 17.4058 11.7969 17.4058 8.89404C17.4058 8.79932 17.4028 8.7041 17.3979 8.61035C17.8955 8.29932 18.3247 7.91455 18.6655 7.47314L18.665 7.47266Z" fill="#2B2B2B" fill-opacity="1.000000" fill-rule="nonzero"/>
	</g>
</svg>
